#!OML:ASF Y:\EmotionMaleHayes\Project 1\Capture day 1\Session 1\Male1.ASF
:FULLY-SPECIFIED
:DEGREES
173
root -28.871 16.7244 1.7833 -70.7403 84.4713 -69.0428
lowerback 10.967 2.51535 3.89822
upperback 3.28562 3.94793 1.78409
thorax -2.57447 2.01249 -0.845304
lowerneck -20.4753 0.848201 1.40733
upperneck 21.0662 0.868565 -0.0850773
head 10.1093 0.54952 -0.129139
rclavicle -3.2228e-014 -2.0276e-014
rhumerus -32.8525 9.63763 -91.1056
rradius 31.9808
rwrist 1.94821
rhand -9.65541 -31.6962
rfingers 7.12502
rthumb 16.3155 -61.0299
lclavicle -3.2228e-014 -2.0276e-014
lhumerus -36.297 -3.15841 87.5705
lradius 27.571
lwrist -9.08507
lhand -16.4993 -28.6694
lfingers 7.12502
lthumb 9.71844 1.08639
rfemur 10.4866 -4.90893 24.7308
rtibia 10.868
rfoot -24.6273 -0.775995
rtoes 12.9923
lfemur -19.1264 6.69778 -6.64919
ltibia 54.7769
lfoot -12.1034 2.16875
ltoes -9.03949
174
root -28.8137 16.7268 1.81157 -64.4743 84.9997 -63.1552
lowerback 10.5001 2.76206 2.87688
upperback 3.34047 4.13183 1.65115
thorax -2.31714 2.10651 -0.409538
lowerneck -20.7505 0.837138 1.39718
upperneck 21.2881 0.850108 -0.0718238
head 10.2397 0.542907 -0.123817
rclavicle 5.04665e-014 3.96575e-014
rhumerus -32.3583 9.80135 -91.0203
rradius 32.0624
rwrist 2.11834
rhand -9.59687 -31.8726
rfingers 7.12502
rthumb 16.3718 -61.2016
lclavicle 5.04665e-014 3.96575e-014
lhumerus -36.3303 -3.08032 87.5671
lradius 27.4108
lwrist -8.9699
lhand -16.0322 -28.2725
lfingers 7.12502
lthumb 10.1691 1.46175
rfemur 10.4286 -4.13066 24.2371
rtibia 10.5652
rfoot -24.7501 -1.27905
rtoes 12.3581
lfemur -20.3524 7.44176 -7.52681
ltibia 54.8212
lfoot -11.9662 2.48103
ltoes -7.98007
175
root -28.7524 16.7292 1.8194 -64.0027 85.3373 -62.8189
lowerback 10.5103 2.79605 2.71828
upperback 3.26139 4.15208 1.47179
thorax -2.40213 2.11269 -0.512116
lowerneck -20.7266 0.787748 1.70063
upperneck 21.3959 0.773831 -0.412092
head 10.2764 0.492889 -0.305978
rclavicle -3.78685e-014 1.74931e-014
rhumerus -32.16 9.79619 -91.142
rradius 32.2079
rwrist 2.16909
rhand -9.53723 -32.2671
rfingers 7.12502
rthumb 16.4292 -61.5914
lclavicle -3.78685e-014 1.74931e-014
lhumerus -36.5887 -2.98502 87.4086
lradius 27.0878
lwrist -9.27265
lhand -16.615 -28.1714
lfingers 7.12502
lthumb 9.60682 1.58953
rfemur 10.7599 -4.099 23.879
rtibia 10.1201
rfoot -24.7519 -1.10626
rtoes 13.3958
lfemur -21.3626 7.73356 -8.10132
ltibia 54.713
lfoot -11.8815 2.8128
ltoes -6.51748
176
root -28.7037 16.728 1.81508 -54.0473 85.2679 -53.0395
lowerback 10.5419 3.09665 2.51778
upperback 3.19907 4.52054 1.28729
thorax -2.47478 2.29219 -0.638959
lowerneck -20.5189 0.810044 1.71046
upperneck 21.0837 0.774783 -0.31107
head 10.1252 0.503739 -0.272731
rclavicle 2.72708e-014 -2.18663e-015
rhumerus -32.0337 10.0154 -91.2939
rradius 32.5625
rwrist 1.68976
rhand -9.76209 -32.6737
rfingers 7.12502
rthumb 16.2127 -62.0158
lclavicle 2.72708e-014 -2.18663e-015
lhumerus -36.7722 -2.70557 87.2684
lradius 26.801
lwrist -9.7531
lhand -16.8644 -28.1568
lfingers 7.12502
lthumb 9.36617 1.61516
rfemur 10.6715 -4.11075 23.2375
rtibia 10.1975
rfoot -24.6806 -0.157692
rtoes 14.054
lfemur -22.163 8.74115 -8.70477
ltibia 54.2022
lfoot -11.6313 3.41428
ltoes -5.15937
177
root -28.6424 16.7223 1.8167 -53.7132 85.387 -52.7873
lowerback 10.5516 3.0912 2.60745
upperback 3.16588 4.51852 1.18596
thorax -2.49936 2.28985 -0.79463
lowerneck -20.4091 0.735581 1.59051
upperneck 21.22 0.692876 -0.212448
head 10.1522 0.471293 -0.229703
rclavicle 1.82136e-014 1.78906e-015
rhumerus -31.8844 10.3119 -91.4586
rradius 32.8718
rwrist 1.19782
rhand -10.0643 -32.8603
rfingers 7.12502
rthumb 15.9217 -62.2258
lclavicle 1.82136e-014 1.78906e-015
lhumerus -37.0804 -2.52048 87.1515
lradius 26.6756
lwrist -9.95999
lhand -16.0179 -28.0016
lfingers 7.12502
lthumb 10.1829 1.73197
rfemur 11.0722 -4.43447 22.9892
rtibia 9.81928
rfoot -24.7718 -0.326959
rtoes 12.0126
lfemur -22.9652 9.02976 -9.00774
ltibia 53.4918
lfoot -11.8773 3.7968
ltoes -4.14865
178
root -28.5881 16.7133 1.80468 -59.9194 84.273 -58.8848
lowerback 10.9955 3.03752 4.24752
upperback 3.10651 4.65875 1.39665
thorax -2.68603 2.35531 -1.53334
lowerneck -20.4731 0.659967 1.66205
upperneck 21.4832 0.618236 -0.40148
head 10.2589 0.423261 -0.318823
rclavicle -1.13804e-014 1.77912e-014
rhumerus -31.612 10.2569 -91.4402
rradius 32.9702
rwrist 1.17959
rhand -10.0272 -32.4623
rfingers 7.12502
rthumb 15.9575 -61.825
lclavicle -1.13804e-014 1.77912e-014
lhumerus -37.5912 -2.34099 87.0545
lradius 26.7411
lwrist -10.1794
lhand -14.1144 -26.2297
lfingers 7.12502
lthumb 12.0188 3.4052
rfemur 11.5851 -4.62024 24.382
rtibia 9.47744
rfoot -24.7085 -0.118413
rtoes 11.4622
lfemur -23.5788 9.51369 -7.67942
ltibia 52.9224
lfoot -12.704 3.84655
ltoes -8.04042
179
root -28.5237 16.7203 1.81081 -58.6612 84.2315 -57.6258
lowerback 10.9996 3.10884 4.241
upperback 3.21016 4.75162 1.38177
thorax -2.57449 2.40694 -1.55219
lowerneck -20.5255 0.647784 1.70933
upperneck 21.4559 0.622553 -0.555423
head 10.2593 0.409312 -0.380747
rclavicle -3.85021e-014 -1.28216e-014
rhumerus -31.0564 10.0844 -91.2894
rradius 33.0312
rwrist 1.29469
rhand -9.69459 -32.2433
rfingers 7.12502
rthumb 16.2777 -61.58
lclavicle -3.85021e-014 -1.28216e-014
lhumerus -37.8091 -2.22188 87.0555
lradius 26.748
lwrist -10.2792
lhand -11.2963 -21.4023
lfingers 7.12502
lthumb 14.735 8.05403
rfemur 12.0882 -4.27032 24.4774
rtibia 8.97303
rfoot -24.7419 -0.275506
rtoes 11.4983
lfemur -24.0816 9.76737 -7.79695
ltibia 51.9328
lfoot -12.8934 4.23368
ltoes -8.19628
